<svg width="113" height="36" viewBox="0 0 113 36" fill="none" xmlns="http://www.w3.org/2000/svg">
<path d="M9.888 19.288C7.424 19.288 5.368 18.456 3.72 16.792C2.088 15.112 1.272 13.048 1.272 10.6C1.272 8.168 2.096 6.112 3.744 4.432C5.392 2.752 7.488 1.912 10.032 1.912C11.488 1.912 12.712 2.152 13.704 2.632C14.696 3.096 15.64 3.768 16.536 4.648L14.328 7.192C13.608 6.536 12.928 6.064 12.288 5.776C11.664 5.472 10.904 5.32 10.008 5.32C8.6 5.32 7.432 5.832 6.504 6.856C5.592 7.864 5.136 9.112 5.136 10.6C5.136 12.072 5.592 13.32 6.504 14.344C7.432 15.368 8.6 15.88 10.008 15.88C10.904 15.88 11.68 15.72 12.336 15.4C12.992 15.08 13.688 14.584 14.424 13.912L16.776 16.432C15.864 17.408 14.872 18.128 13.8 18.592C12.744 19.056 11.44 19.288 9.888 19.288ZM19.3508 19V6.136H22.9988V8.728C23.8308 6.76 25.1988 5.816 27.1028 5.896V9.712H26.9108C25.6628 9.712 24.6948 10.096 24.0068 10.864C23.3348 11.616 22.9988 12.744 22.9988 14.248V19H19.3508ZM32.454 22.912C31.302 22.912 30.222 22.616 29.214 22.024L30.438 19.384C30.998 19.72 31.518 19.888 31.998 19.888C32.574 19.888 32.998 19.608 33.27 19.048L28.23 6.136H32.094L35.022 14.896L37.83 6.136H41.622L36.678 19.312C36.182 20.64 35.622 21.568 34.998 22.096C34.374 22.64 33.526 22.912 32.454 22.912ZM43.7726 22.84V6.136H47.4206V7.984C48.4446 6.592 49.7806 5.896 51.4286 5.896C53.0286 5.896 54.4046 6.496 55.5566 7.696C56.7086 8.896 57.2846 10.528 57.2846 12.592C57.2846 14.64 56.7086 16.264 55.5566 17.464C54.4206 18.648 53.0446 19.24 51.4286 19.24C49.8286 19.24 48.4926 18.6 47.4206 17.32V22.84H43.7726ZM48.2606 15.16C48.8686 15.816 49.6126 16.144 50.4926 16.144C51.3726 16.144 52.1166 15.816 52.7246 15.16C53.3326 14.488 53.6366 13.616 53.6366 12.544C53.6366 11.504 53.3326 10.656 52.7246 10C52.1166 9.328 51.3726 8.992 50.4926 8.992C49.6126 8.992 48.8686 9.328 48.2606 10C47.6686 10.656 47.3726 11.52 47.3726 12.592C47.3726 13.632 47.6686 14.488 48.2606 15.16ZM64.3119 19.216C63.1119 19.216 62.1839 18.928 61.5279 18.352C60.8879 17.76 60.5679 16.76 60.5679 15.352V9.256H59.0319V6.136H60.5679V2.848H64.2159V6.136H67.2399V9.256H64.2159V14.752C64.2159 15.584 64.6079 16 65.3919 16C66.0319 16 66.6319 15.848 67.1919 15.544V18.472C66.3599 18.968 65.3999 19.216 64.3119 19.216ZM80.8573 17.344C79.5293 18.64 77.8733 19.288 75.8893 19.288C73.9053 19.288 72.2493 18.648 70.9213 17.368C69.6093 16.072 68.9533 14.48 68.9533 12.592C68.9533 10.72 69.6173 9.136 70.9453 7.84C72.2893 6.544 73.9533 5.896 75.9373 5.896C77.9213 5.896 79.5693 6.544 80.8813 7.84C82.2093 9.12 82.8733 10.704 82.8733 12.592C82.8733 14.464 82.2013 16.048 80.8573 17.344ZM75.9373 16.144C76.9453 16.144 77.7533 15.808 78.3613 15.136C78.9693 14.448 79.2733 13.6 79.2733 12.592C79.2733 11.616 78.9533 10.784 78.3133 10.096C77.6893 9.392 76.8813 9.04 75.8893 9.04C74.8813 9.04 74.0733 9.384 73.4653 10.072C72.8573 10.744 72.5533 11.584 72.5533 12.592C72.5533 13.568 72.8653 14.408 73.4893 15.112C74.1293 15.8 74.9453 16.144 75.9373 16.144Z" fill="white"/>
<path d="M0.84 34V27H2.5L4.34 29.96L6.18 27H7.84V34H6.31V29.43L4.34 32.42H4.3L2.35 29.46V34H0.84ZM10.8816 34.1C10.355 34.1 9.91497 33.9533 9.56164 33.66C9.21497 33.3667 9.04164 32.96 9.04164 32.44C9.04164 31.8733 9.23497 31.4467 9.62164 31.16C10.015 30.8733 10.5416 30.73 11.2016 30.73C11.6483 30.73 12.085 30.8033 12.5116 30.95V30.86C12.5116 30.2067 12.1283 29.88 11.3616 29.88C10.9016 29.88 10.4083 29.9767 9.88164 30.17L9.50164 29.01C10.155 28.7233 10.8483 28.58 11.5816 28.58C12.3883 28.58 12.9916 28.78 13.3916 29.18C13.7783 29.5667 13.9716 30.1367 13.9716 30.89V34H12.5016V33.42C12.095 33.8733 11.555 34.1 10.8816 34.1ZM11.3416 33.05C11.695 33.05 11.9816 32.9633 12.2016 32.79C12.4216 32.61 12.5316 32.3833 12.5316 32.11V31.84C12.245 31.7067 11.9216 31.64 11.5616 31.64C11.2283 31.64 10.9683 31.7067 10.7816 31.84C10.6016 31.9667 10.5116 32.1533 10.5116 32.4C10.5116 32.6 10.5883 32.76 10.7416 32.88C10.895 32.9933 11.095 33.05 11.3416 33.05ZM17.0408 34.09C16.5408 34.09 16.1541 33.97 15.8808 33.73C15.6141 33.4833 15.4808 33.0667 15.4808 32.48V29.94H14.8408V28.64H15.4808V27.27H17.0008V28.64H18.2608V29.94H17.0008V32.23C17.0008 32.5767 17.1641 32.75 17.4908 32.75C17.7574 32.75 18.0074 32.6867 18.2408 32.56V33.78C17.8941 33.9867 17.4941 34.09 17.0408 34.09ZM19.3812 34V28.64H20.9012V29.72C21.2478 28.9 21.8178 28.5067 22.6112 28.54V30.13H22.5312C22.0112 30.13 21.6078 30.29 21.3212 30.61C21.0412 30.9233 20.9012 31.3933 20.9012 32.02V34H19.3812ZM23.5909 28.05V26.7H25.1909V28.05H23.5909ZM23.6309 34V28.64H25.1509V34H23.6309ZM26.1284 34L28.0084 31.28L26.1984 28.64H27.8284L28.8284 30.2L29.8384 28.64H31.4284L29.6184 31.25L31.5084 34H29.8784L28.7984 32.33L27.7184 34H26.1284ZM35.9483 34.12C34.8616 34.12 33.9749 33.78 33.2883 33.1C32.6083 32.42 32.2683 31.5533 32.2683 30.5C32.2683 29.4933 32.6183 28.64 33.3183 27.94C34.0183 27.2333 34.8916 26.88 35.9383 26.88C36.5449 26.88 37.0583 26.96 37.4783 27.12C37.8983 27.2733 38.3016 27.5133 38.6883 27.84L37.7183 29.01C37.4249 28.7633 37.1416 28.5833 36.8683 28.47C36.5949 28.3567 36.2683 28.3 35.8883 28.3C35.3283 28.3 34.8516 28.5167 34.4583 28.95C34.0716 29.3767 33.8783 29.8933 33.8783 30.5C33.8783 31.14 34.0749 31.67 34.4683 32.09C34.8683 32.51 35.3783 32.72 35.9983 32.72C36.5716 32.72 37.0549 32.58 37.4483 32.3V31.3H35.8983V29.97H38.9383V33.01C38.0649 33.75 37.0683 34.12 35.9483 34.12ZM41.8777 34.1C41.3511 34.1 40.9111 33.9533 40.5577 33.66C40.2111 33.3667 40.0377 32.96 40.0377 32.44C40.0377 31.8733 40.2311 31.4467 40.6177 31.16C41.0111 30.8733 41.5377 30.73 42.1977 30.73C42.6444 30.73 43.0811 30.8033 43.5077 30.95V30.86C43.5077 30.2067 43.1244 29.88 42.3577 29.88C41.8977 29.88 41.4044 29.9767 40.8777 30.17L40.4977 29.01C41.1511 28.7233 41.8444 28.58 42.5777 28.58C43.3844 28.58 43.9877 28.78 44.3877 29.18C44.7744 29.5667 44.9677 30.1367 44.9677 30.89V34H43.4977V33.42C43.0911 33.8733 42.5511 34.1 41.8777 34.1ZM42.3377 33.05C42.6911 33.05 42.9777 32.9633 43.1977 32.79C43.4177 32.61 43.5277 32.3833 43.5277 32.11V31.84C43.2411 31.7067 42.9177 31.64 42.5577 31.64C42.2244 31.64 41.9644 31.7067 41.7777 31.84C41.5977 31.9667 41.5077 32.1533 41.5077 32.4C41.5077 32.6 41.5844 32.76 41.7377 32.88C41.8911 32.9933 42.0911 33.05 42.3377 33.05ZM46.2757 34V28.64H47.7957V29.4C48.2424 28.8267 48.769 28.54 49.3757 28.54C50.089 28.54 50.5924 28.8233 50.8857 29.39C51.3724 28.8233 51.959 28.54 52.6457 28.54C53.219 28.54 53.6624 28.71 53.9757 29.05C54.2957 29.3833 54.4557 29.87 54.4557 30.51V34H52.9357V31.01C52.9357 30.2833 52.639 29.92 52.0457 29.92C51.759 29.92 51.5324 30.0133 51.3657 30.2C51.2057 30.3867 51.1257 30.6567 51.1257 31.01V34H49.6057V31.01C49.6057 30.2833 49.309 29.92 48.7157 29.92C48.429 29.92 48.2024 30.0133 48.0357 30.2C47.8757 30.3867 47.7957 30.6567 47.7957 31.01V34H46.2757ZM58.3177 34.12C57.5043 34.12 56.8343 33.8633 56.3077 33.35C55.781 32.83 55.5177 32.1567 55.5177 31.33C55.5177 30.55 55.7677 29.89 56.2677 29.35C56.7677 28.81 57.401 28.54 58.1677 28.54C59.0143 28.54 59.661 28.82 60.1077 29.38C60.5543 29.94 60.7777 30.63 60.7777 31.45C60.7777 31.53 60.771 31.6633 60.7577 31.85H57.0277C57.101 32.19 57.251 32.45 57.4777 32.63C57.7043 32.81 57.991 32.9 58.3377 32.9C58.811 32.9 59.2443 32.7167 59.6377 32.35L60.5077 33.12C59.9677 33.7867 59.2377 34.12 58.3177 34.12ZM57.0077 30.9H59.2977C59.251 30.5533 59.1277 30.2767 58.9277 30.07C58.7343 29.8633 58.481 29.76 58.1677 29.76C57.861 29.76 57.6043 29.8633 57.3977 30.07C57.1977 30.27 57.0677 30.5467 57.0077 30.9Z" fill="#F5E12F"/>
<path d="M89 13H93V31L89 36V13Z" fill="#F5E12F"/>
<path d="M96 0H100V20.5L96 26V0Z" fill="#F5E12F"/>
<path d="M102 7H106V26L102 31V7Z" fill="#F5E12F"/>
<path d="M109 25H113V30.5L109 36V25Z" fill="#F5E12F"/>
</svg>
