<svg width="32" height="32" viewBox="0 0 32 32" fill="none" xmlns="http://www.w3.org/2000/svg">
<path d="M16 32C24.8366 32 32 24.8366 32 16C32 7.16344 24.8366 0 16 0C7.16344 0 0 7.16344 0 16C0 24.8366 7.16344 32 16 32Z" fill="white"/>
<path d="M24.6493 7.2002L17.1493 12.7495L18.544 9.47886L24.6507 7.2002H24.6493Z" fill="#E17726" stroke="#E17726" stroke-width="0.25" stroke-linecap="round" stroke-linejoin="round"/>
<path d="M7.34933 7.2002L14.784 12.8015L13.456 9.47886L7.34933 7.2002ZM21.9493 20.0669L19.9547 23.1162L24.228 24.2935L25.452 20.1335L21.9493 20.0669V20.0669ZM6.556 20.1335L7.772 24.2935L12.0387 23.1162L10.0493 20.0682L6.556 20.1349V20.1335Z" fill="#E27625" stroke="#E27625" stroke-width="0.25" stroke-linecap="round" stroke-linejoin="round"/>
<path d="M11.808 14.9188L10.6213 16.7095L14.8493 16.9015L14.7093 12.3508L11.808 14.9188ZM20.1907 14.9175L17.2453 12.2988L17.1493 16.9015L21.3787 16.7082L20.192 14.9175H20.1907ZM12.0387 23.1162L14.5987 21.8802L12.3947 20.1642L12.0387 23.1162ZM17.4027 21.8802L19.9547 23.1162L19.6053 20.1642L17.4027 21.8802Z" fill="#E27625" stroke="#E27625" stroke-width="0.25" stroke-linecap="round" stroke-linejoin="round"/>
<path d="M19.9547 23.1173L17.4027 21.8813L17.6093 23.5387L17.588 24.2413L19.9547 23.1173ZM12.0387 23.1173L14.412 24.2413L14.3987 23.5387L14.5987 21.8813L12.0387 23.1173Z" fill="#D5BFB2" stroke="#D5BFB2" stroke-width="0.25" stroke-linecap="round" stroke-linejoin="round"/>
<path d="M14.4573 19.0681L12.3347 18.4468L13.8333 17.7588L14.4573 19.0681ZM17.5427 19.0681L18.1667 17.7588L19.6733 18.4468L17.5427 19.0681V19.0681Z" fill="#233447" stroke="#233447" stroke-width="0.25" stroke-linecap="round" stroke-linejoin="round"/>
<path d="M12.0387 23.116L12.4093 20.068L10.0493 20.1347L12.0387 23.116ZM19.5907 20.0667L19.9547 23.116L21.9493 20.1347L19.5907 20.068V20.0667ZM21.3787 16.708L17.1493 16.9L17.5427 19.0693L18.1653 17.7587L19.672 18.4467L21.3787 16.708ZM12.3347 18.4467L13.8333 17.7587L14.456 19.0693L14.8493 16.9L10.6213 16.708L12.3347 18.4467V18.4467Z" fill="#CC6228" stroke="#CC6228" stroke-width="0.25" stroke-linecap="round" stroke-linejoin="round"/>
<path d="M10.6213 16.708L12.3947 20.164L12.3347 18.4467L10.6213 16.708V16.708ZM19.672 18.4467L19.6053 20.164L21.3787 16.708L19.672 18.4467ZM14.8507 16.9L14.4573 19.068L14.9547 21.628L15.0653 18.2547L14.8507 16.9ZM17.1493 16.9L16.9413 18.2467L17.0453 21.628L17.5427 19.068L17.1493 16.9V16.9Z" fill="#E27525" stroke="#E27525" stroke-width="0.25" stroke-linecap="round" stroke-linejoin="round"/>
<path d="M17.544 19.0696L17.0467 21.6296L17.4027 21.8816L19.6053 20.1642L19.672 18.4482L17.544 19.0696V19.0696ZM12.3347 18.4482L12.3947 20.1642L14.5973 21.8816L14.9547 21.6296L14.4573 19.0696L12.3347 18.4482V18.4482Z" fill="#F5841F" stroke="#F5841F" stroke-width="0.25" stroke-linecap="round" stroke-linejoin="round"/>
<path d="M17.5867 24.2412L17.6093 23.5385L17.4173 23.3759H14.5827L14.3973 23.5385L14.412 24.2412L12.0387 23.1172L12.8693 23.7972L14.5533 24.9599H17.4387L19.1307 23.7972L19.9547 23.1172L17.588 24.2412H17.5867Z" fill="#C0AC9D" stroke="#C0AC9D" stroke-width="0.25" stroke-linecap="round" stroke-linejoin="round"/>
<path d="M17.4027 21.8814L17.0467 21.6294H14.9547L14.5987 21.8827L14.3987 23.5387L14.584 23.3761H17.4173L17.6107 23.5387L17.4027 21.8814V21.8814Z" fill="#161616" stroke="#161616" stroke-width="0.25" stroke-linecap="round" stroke-linejoin="round"/>
<path d="M24.9693 13.1122L25.6 10.0495L24.6507 7.2002L17.4027 12.5655L20.192 14.9175L24.1307 16.0642L24.9987 15.0509L24.6213 14.7775L25.2213 14.2309L24.7613 13.8749L25.3627 13.4162L24.9693 13.1122V13.1122ZM6.39999 10.0495L7.03866 13.1122L6.63066 13.4162L7.23866 13.8749L6.77866 14.2295L7.37866 14.7775L7.00133 15.0509L7.86799 16.0642L11.808 14.9175L14.5973 12.5655L7.34933 7.2002L6.39999 10.0495Z" fill="#763E1A" stroke="#763E1A" stroke-width="0.25" stroke-linecap="round" stroke-linejoin="round"/>
<path d="M24.1307 16.0653L20.1907 14.9186L21.3773 16.7093L19.604 20.164L21.9493 20.1346H25.4507L24.1307 16.0653V16.0653ZM11.808 14.9186L7.86933 16.0653L6.556 20.1346H10.0493L12.3947 20.164L10.6213 16.7093L11.808 14.9186ZM17.1493 16.9013L17.4027 12.5653L18.544 9.47998H13.4547L14.5973 12.5653L14.8507 16.9013L14.9453 18.2626L14.9533 21.6306H17.0467L17.0533 18.2626L17.1493 16.9026V16.9013Z" fill="#F5841F" stroke="#F5841F" stroke-width="0.25" stroke-linecap="round" stroke-linejoin="round"/>
</svg>
