<svg width="24" height="24" fill="none" xmlns="http://www.w3.org/2000/svg"><path d="M24 12c0-6.627-5.373-12-12-12S0 5.373 0 12s5.373 12 12 12 12-5.373 12-12z" fill="#F3BA2F"/><path d="M9.017 10.774L12 7.79l2.985 2.985L16.72 9.04 12 4.32 7.281 9.039l1.736 1.735zM4.32 12l1.736-1.736L7.79 12l-1.735 1.735L4.32 12zm4.697 1.226L12 16.209l2.984-2.985 1.737 1.735-4.72 4.72-4.72-4.718-.002-.002 1.738-1.733zM16.21 12l1.735-1.736L19.68 12l-1.736 1.735L16.21 12z" fill="#fff"/><path d="M13.76 12h.001l-1.76-1.762-1.303 1.3-.15.15-.307.309-.003.003.003.002 1.76 1.76L13.761 12l.001-.001" fill="#fff"/></svg>