<svg width="32" height="32" fill="none" xmlns="http://www.w3.org/2000/svg"><path d="M22.666 2.667H9.333c-3.68 0-6.667 2.973-6.667 6.64v9.307c0 3.666 2.987 6.64 6.667 6.64h2c.36 0 .84.24 1.067.533l2 2.653c.88 1.174 2.32 1.174 3.2 0l2-2.653a1.352 1.352 0 011.066-.533h2c3.68 0 6.667-2.974 6.667-6.64V9.307c0-3.667-2.986-6.64-6.666-6.64zm-5.333 15.667h-8c-.546 0-1-.454-1-1 0-.547.454-1 1-1h8c.547 0 1 .453 1 1 0 .546-.453 1-1 1zm5.334-6.667H9.332c-.546 0-1-.453-1-1 0-.547.454-1 1-1h13.333c.547 0 1 .453 1 1 0 .547-.453 1-1 1z" fill="#06070A"/></svg>