<svg width="32" height="32" fill="none" xmlns="http://www.w3.org/2000/svg"><path d="M22.666 3.24H9.333c-4 0-6.667 2.667-6.667 6.667v8c0 4 2.667 6.667 6.667 6.667v2.84c0 1.066 1.187 1.706 2.067 1.106l5.933-3.946h5.334c4 0 6.666-2.667 6.666-6.667v-8c0-4-2.666-6.667-6.666-6.667zM16 19.467c-.56 0-1-.453-1-1 0-.547.44-1 1-1s1 .453 1 1c0 .547-.44 1-1 1zm1.68-5.533c-.52.346-.68.573-.68.946v.28c0 .547-.453 1-1 1-.547 0-1-.453-1-1v-.28c0-1.546 1.133-2.306 1.56-2.6.493-.333.653-.56.653-.906 0-.667-.547-1.214-1.213-1.214-.667 0-1.213.547-1.213 1.214 0 .546-.454 1-1 1-.547 0-1-.454-1-1A3.215 3.215 0 0116 8.16a3.215 3.215 0 013.213 3.214c0 1.52-1.12 2.28-1.533 2.56z" fill="#F5E12F"/></svg>