<svg width="32" height="32" fill="none" xmlns="http://www.w3.org/2000/svg"><path d="M16 2.667C8.64 2.667 2.666 8.64 2.666 16S8.64 29.333 16 29.333c7.36 0 13.333-5.973 13.333-13.333S23.36 2.666 16 2.666zm6.666 20.626c-2.28 0-4.413-.986-6.12-2.813-1.933 1.747-4.453 2.813-7.213 2.813-.546 0-1-.453-1-1 0-.546.454-1 1-1 4.627 0 8.454-3.666 8.947-8.36H9.347c-.547 0-1-.453-1-1a.996.996 0 011-.986H15v-1.24c0-.547.453-1 1-1 .547 0 1 .453 1 1v1.24h2.253c.027 0 .053-.014.08-.014.027 0 .054.014.08.014h3.24c.547 0 1 .453 1 1 0 .546-.453 1-1 1H20.28a11.672 11.672 0 01-2.36 6.08c1.333 1.48 3 2.28 4.746 2.28.547 0 1 .453 1 1a.996.996 0 01-1 .986z" fill="#fff"/></svg>