<svg width="24" height="24" fill="none" xmlns="http://www.w3.org/2000/svg"><path d="M2 7.81v8.38C2 19.83 4.17 22 7.81 22h8.37c3.65 0 5.82-2.17 5.82-5.81V7.82c0-3.64-2.17-5.81-5.81-5.81H7.81C4.17 2 2 4.17 2 7.81zm8.98 7.72a.754.754 0 010-1.06l1.72-1.72H6.51c-.41 0-.75-.34-.75-.75s.34-.75.75-.75h6.19l-1.72-1.72a.754.754 0 010-1.06c.29-.29.77-.29 1.06 0l3 3a.776.776 0 01.22.53.753.753 0 01-.22.53l-3 3c-.29.29-.76.29-1.06 0zm6.24-9.77c.67 2.01 1.01 4.12 1.01 6.24s-.34 4.23-1.01 6.24c-.13.39-.56.6-.95.47a.741.741 0 01-.47-.95c1.24-3.72 1.24-7.81 0-11.53-.13-.39.08-.82.47-.95.4-.12.82.09.95.48z" fill="#919191"/></svg>